# Blender v3.2.2 OBJ File: ''
# www.blender.org
mtllib cube&sphere.mtl
o Cube_Cube.001
v -1.000000 1.646471 -0.993357
v -1.000000 1.646471 1.006643
v -1.000000 3.646471 -0.993357
v -1.000000 3.646471 1.006643
v 1.000000 1.646471 -0.993357
v 1.000000 1.646471 1.006643
v 1.000000 3.646471 -0.993357
v 1.000000 3.646471 1.006643
vt 0.375000 0.000000
vt 0.625000 0.000000
vt 0.625000 0.250000
vt 0.375000 0.250000
vt 0.625000 0.500000
vt 0.375000 0.500000
vt 0.625000 0.750000
vt 0.375000 0.750000
vt 0.625000 1.000000
vt 0.375000 1.000000
vt 0.125000 0.500000
vt 0.125000 0.750000
vt 0.875000 0.500000
vt 0.875000 0.750000
vn -1.0000 0.0000 0.0000
vn 0.0000 1.0000 0.0000
vn 1.0000 0.0000 0.0000
vn 0.0000 -1.0000 0.0000
vn 0.0000 0.0000 -1.0000
vn 0.0000 -0.0000 1.0000
usemtl None
s off
f 1/1/1 2/2/1 4/3/1 3/4/1
f 3/4/2 4/3/2 8/5/2 7/6/2
f 7/6/3 8/5/3 6/7/3 5/8/3
f 5/8/4 6/7/4 2/9/4 1/10/4
f 3/11/5 7/6/5 5/8/5 1/12/5
f 8/5/6 4/13/6 2/14/6 6/7/6
o Sphere_Sphere.001
v 0.000000 -0.011850 0.930523
v 0.000000 0.605466 0.006644
v 0.000000 0.529346 -0.376040
v 0.000000 0.312573 -0.700463
v 0.000000 -0.011850 -0.917236
v 0.166040 -0.049748 0.930523
v 0.306802 0.242548 0.713750
v 0.400856 0.437853 0.389327
v 0.433884 0.506435 0.006644
v 0.400856 0.437853 -0.376040
v 0.306802 0.242548 -0.700463
v 0.166040 -0.049748 -0.917236
v 0.299194 -0.155934 0.930523
v 0.552839 0.046340 0.713750
v 0.722318 0.181496 0.389327
v 0.781832 0.228956 0.006644
v 0.722318 0.181496 -0.376040
v 0.552839 0.046340 -0.700463
v 0.299194 -0.155934 -0.917236
v 0.373089 -0.309379 0.930523
v 0.689378 -0.237188 0.713750
v 0.900716 -0.188951 0.389327
v 0.974928 -0.172013 0.006643
v 0.900716 -0.188951 -0.376040
v 0.689378 -0.237188 -0.700463
v 0.373089 -0.309379 -0.917236
v 0.373089 -0.479689 0.930523
v 0.689378 -0.551880 0.713750
v 0.900716 -0.600116 0.389327
v 0.974928 -0.617055 0.006643
v 0.900716 -0.600116 -0.376040
v 0.689378 -0.551880 -0.700463
v 0.373089 -0.479689 -0.917236
v 0.299194 -0.633133 0.930523
v 0.552839 -0.835408 0.713750
v 0.722318 -0.970563 0.389327
v 0.781832 -1.018023 0.006643
v 0.722318 -0.970563 -0.376040
v 0.552839 -0.835408 -0.700463
v 0.299194 -0.633133 -0.917236
v 0.166040 -0.739320 0.930523
v 0.306802 -1.031615 0.713750
v 0.400856 -1.226921 0.389327
v 0.433884 -1.295503 0.006643
v 0.400856 -1.226921 -0.376040
v 0.306802 -1.031615 -0.700463
v 0.166040 -0.739320 -0.917236
v 0.000000 -0.394534 1.006644
v 0.000000 -0.777217 0.930523
v 0.000000 -1.101640 0.713750
v -0.000000 -1.318413 0.389327
v -0.000000 -1.394534 0.006643
v -0.000000 -1.318413 -0.376040
v 0.000000 -1.101640 -0.700463
v 0.000000 -0.777217 -0.917236
v -0.166040 -0.739319 0.930523
v -0.306802 -1.031615 0.713750
v -0.400856 -1.226920 0.389327
v -0.433884 -1.295502 0.006643
v -0.400856 -1.226920 -0.376040
v -0.306802 -1.031615 -0.700463
v -0.166040 -0.739319 -0.917236
v 0.000000 -0.394534 -0.993356
v -0.299194 -0.633133 0.930523
v -0.552838 -0.835407 0.713750
v -0.722318 -0.970563 0.389327
v -0.781832 -1.018023 0.006643
v -0.722318 -0.970563 -0.376040
v -0.552838 -0.835407 -0.700463
v -0.299194 -0.633133 -0.917236
v -0.373089 -0.479689 0.930523
v -0.689378 -0.551880 0.713750
v -0.900716 -0.600116 0.389327
v -0.974928 -0.617054 0.006643
v -0.900716 -0.600116 -0.376040
v -0.689378 -0.551880 -0.700463
v -0.373089 -0.479689 -0.917236
v -0.373089 -0.309378 0.930523
v -0.689378 -0.237187 0.713750
v -0.900716 -0.188951 0.389327
v -0.974928 -0.172012 0.006643
v -0.900716 -0.188951 -0.376040
v -0.689378 -0.237187 -0.700463
v -0.373089 -0.309378 -0.917236
v -0.299194 -0.155934 0.930523
v -0.552838 0.046340 0.713750
v -0.722318 0.181496 0.389327
v -0.781831 0.228956 0.006644
v -0.722318 0.181496 -0.376040
v -0.552838 0.046340 -0.700463
v -0.299194 -0.155934 -0.917236
v -0.166040 -0.049748 0.930523
v -0.306802 0.242548 0.713750
v -0.400856 0.437853 0.389327
v -0.433883 0.506435 0.006644
v -0.400856 0.437853 -0.376040
v -0.306802 0.242548 -0.700463
v -0.166040 -0.049748 -0.917236
v 0.000000 0.312573 0.713750
v 0.000000 0.529346 0.389327
vt 0.714286 0.875000
vt 0.678571 1.000000
vt 0.642857 0.875000
vt 0.678571 0.000000
vt 0.714286 0.125000
vt 0.642857 0.125000
vt 0.714286 0.250000
vt 0.714286 0.375000
vt 0.642857 0.375000
vt 0.642857 0.250000
vt 0.714286 0.500000
vt 0.714286 0.625000
vt 0.642857 0.625000
vt 0.642857 0.500000
vt 0.714286 0.750000
vt 0.642857 0.750000
vt 0.571429 0.625000
vt 0.571429 0.500000
vt 0.571429 0.875000
vt 0.571429 0.750000
vt 0.571429 0.250000
vt 0.571429 0.125000
vt 0.571429 0.375000
vt 0.607143 1.000000
vt 0.607143 0.000000
vt 0.500000 0.250000
vt 0.500000 0.125000
vt 0.500000 0.500000
vt 0.500000 0.375000
vt 0.500000 0.750000
vt 0.500000 0.625000
vt 0.535714 1.000000
vt 0.500000 0.875000
vt 0.535714 0.000000
vt 0.428571 0.750000
vt 0.428571 0.625000
vt 0.464286 1.000000
vt 0.428571 0.875000
vt 0.464286 0.000000
vt 0.428571 0.125000
vt 0.428571 0.375000
vt 0.428571 0.250000
vt 0.428571 0.500000
vt 0.392857 0.000000
vt 0.357143 0.125000
vt 0.357143 0.375000
vt 0.357143 0.250000
vt 0.357143 0.625000
vt 0.357143 0.500000
vt 0.357143 0.875000
vt 0.357143 0.750000
vt 0.392857 1.000000
vt 0.285714 0.875000
vt 0.285714 0.750000
vt 0.285714 0.250000
vt 0.285714 0.125000
vt 0.285714 0.500000
vt 0.285714 0.375000
vt 0.285714 0.625000
vt 0.321429 1.000000
vt 0.321429 0.000000
vt 0.214286 0.250000
vt 0.214286 0.125000
vt 0.214286 0.500000
vt 0.214286 0.375000
vt 0.214286 0.750000
vt 0.214286 0.625000
vt 0.250000 1.000000
vt 0.214286 0.875000
vt 0.250000 0.000000
vt 0.178571 1.000000
vt 0.142857 0.875000
vt 0.178571 0.000000
vt 0.142857 0.125000
vt 0.142857 0.375000
vt 0.142857 0.250000
vt 0.142857 0.625000
vt 0.142857 0.500000
vt 0.142857 0.750000
vt 0.071429 0.375000
vt 0.071429 0.250000
vt 0.071429 0.625000
vt 0.071429 0.500000
vt 0.071429 0.875000
vt 0.071429 0.750000
vt 0.071429 0.125000
vt 0.107143 1.000000
vt 0.107143 0.000000
vt 0.000000 0.250000
vt 0.000000 0.125000
vt 0.000000 0.500000
vt 0.000000 0.375000
vt 0.000000 0.750000
vt 0.000000 0.625000
vt 0.035714 1.000000
vt 0.000000 0.875000
vt 0.035714 0.000000
vt 1.000000 0.375000
vt 1.000000 0.500000
vt 0.928571 0.500000
vt 0.928571 0.375000
vt 1.000000 0.625000
vt 1.000000 0.750000
vt 0.928571 0.750000
vt 0.928571 0.625000
vt 1.000000 0.875000
vt 0.964286 1.000000
vt 0.928571 0.875000
vt 0.964286 0.000000
vt 1.000000 0.125000
vt 0.928571 0.125000
vt 1.000000 0.250000
vt 0.928571 0.250000
vt 0.892857 0.000000
vt 0.857143 0.125000
vt 0.857143 0.375000
vt 0.857143 0.250000
vt 0.857143 0.625000
vt 0.857143 0.500000
vt 0.857143 0.875000
vt 0.857143 0.750000
vt 0.892857 1.000000
vt 0.785714 0.625000
vt 0.785714 0.500000
vt 0.785714 0.875000
vt 0.785714 0.750000
vt 0.785714 0.250000
vt 0.785714 0.125000
vt 0.785714 0.375000
vt 0.821429 1.000000
vt 0.821429 0.000000
vt 0.750000 1.000000
vt 0.750000 0.000000
vn 0.0445 0.1949 0.9798
vn 0.0445 0.1949 -0.9798
vn 0.1864 0.8169 -0.5458
vn 0.2185 0.9571 0.1904
vn 0.1258 0.5512 0.8249
vn 0.1258 0.5512 -0.8249
vn 0.2185 0.9571 -0.1904
vn 0.1864 0.8169 0.5458
vn 0.6121 0.7675 0.1904
vn 0.3525 0.4420 0.8249
vn 0.3525 0.4420 -0.8249
vn 0.6121 0.7675 -0.1904
vn 0.5224 0.6551 0.5458
vn 0.1246 0.1563 0.9798
vn 0.1246 0.1563 -0.9798
vn 0.5224 0.6551 -0.5458
vn 0.5093 0.2453 -0.8249
vn 0.8845 0.4259 -0.1904
vn 0.7549 0.3635 0.5458
vn 0.1801 0.0867 0.9798
vn 0.1801 0.0867 -0.9798
vn 0.7549 0.3635 -0.5458
vn 0.8845 0.4259 0.1904
vn 0.5093 0.2453 0.8249
vn 0.8379 0.0000 0.5458
vn 0.1999 -0.0000 0.9798
vn 0.1999 -0.0000 -0.9798
vn 0.8379 0.0000 -0.5458
vn 0.9817 -0.0000 0.1904
vn 0.5653 0.0000 0.8249
vn 0.5653 0.0000 -0.8249
vn 0.9817 0.0000 -0.1904
vn 0.1801 -0.0867 -0.9798
vn 0.7549 -0.3635 -0.5458
vn 0.8845 -0.4259 0.1904
vn 0.5093 -0.2453 0.8249
vn 0.5093 -0.2453 -0.8249
vn 0.8845 -0.4259 -0.1904
vn 0.7549 -0.3635 0.5458
vn 0.1801 -0.0867 0.9798
vn 0.3525 -0.4420 0.8249
vn 0.3525 -0.4420 -0.8249
vn 0.6121 -0.7675 -0.1904
vn 0.5224 -0.6551 0.5458
vn 0.1246 -0.1563 0.9798
vn 0.1246 -0.1563 -0.9798
vn 0.5224 -0.6551 -0.5458
vn 0.6121 -0.7675 0.1904
vn 0.1258 -0.5512 -0.8249
vn 0.2185 -0.9571 -0.1904
vn 0.1864 -0.8169 0.5458
vn 0.0445 -0.1949 0.9798
vn 0.0445 -0.1949 -0.9798
vn 0.1864 -0.8169 -0.5458
vn 0.2185 -0.9571 0.1904
vn 0.1258 -0.5512 0.8249
vn -0.0445 -0.1949 0.9798
vn -0.0445 -0.1949 -0.9798
vn -0.1864 -0.8169 -0.5458
vn -0.2185 -0.9571 0.1904
vn -0.1258 -0.5512 0.8249
vn -0.1258 -0.5512 -0.8249
vn -0.2185 -0.9571 -0.1904
vn -0.1864 -0.8169 0.5458
vn -0.5224 -0.6551 -0.5458
vn -0.6121 -0.7675 0.1904
vn -0.3525 -0.4420 0.8249
vn -0.3525 -0.4420 -0.8249
vn -0.6121 -0.7675 -0.1904
vn -0.5224 -0.6551 0.5458
vn -0.1246 -0.1563 0.9798
vn -0.1246 -0.1563 -0.9798
vn -0.5093 -0.2453 -0.8249
vn -0.8845 -0.4259 -0.1904
vn -0.7549 -0.3635 0.5458
vn -0.1801 -0.0867 0.9798
vn -0.1801 -0.0867 -0.9798
vn -0.7549 -0.3635 -0.5458
vn -0.8845 -0.4259 0.1904
vn -0.5093 -0.2453 0.8249
vn -0.9817 0.0000 -0.1904
vn -0.8379 0.0000 0.5458
vn -0.1999 0.0000 0.9798
vn -0.1999 0.0000 -0.9798
vn -0.8379 0.0000 -0.5458
vn -0.9817 0.0000 0.1904
vn -0.5653 0.0000 0.8249
vn -0.5653 0.0000 -0.8249
vn -0.1801 0.0867 -0.9798
vn -0.7549 0.3636 -0.5458
vn -0.8845 0.4259 0.1904
vn -0.5093 0.2453 0.8249
vn -0.5093 0.2453 -0.8249
vn -0.8845 0.4259 -0.1904
vn -0.7549 0.3635 0.5458
vn -0.1801 0.0867 0.9798
vn -0.6121 0.7675 0.1904
vn -0.3525 0.4420 0.8249
vn -0.3525 0.4420 -0.8249
vn -0.6121 0.7675 -0.1904
vn -0.5224 0.6551 0.5458
vn -0.1246 0.1563 0.9798
vn -0.1246 0.1563 -0.9798
vn -0.5224 0.6551 -0.5458
vn -0.1258 0.5512 -0.8249
vn -0.2185 0.9571 -0.1904
vn -0.1864 0.8169 0.5458
vn -0.0445 0.1949 0.9798
vn -0.0445 0.1949 -0.9798
vn -0.1864 0.8169 -0.5458
vn -0.2185 0.9571 0.1904
vn -0.1258 0.5512 0.8249
usemtl None
s off
f 9/15/7 56/16/7 14/17/7
f 71/18/8 13/19/8 20/20/8
f 12/21/9 11/22/9 18/23/9 19/24/9
f 10/25/10 108/26/10 16/27/10 17/28/10
f 107/29/11 9/15/11 14/17/11 15/30/11
f 13/19/12 12/21/12 19/24/12 20/20/12
f 11/22/13 10/25/13 17/28/13 18/23/13
f 108/26/14 107/29/14 15/30/14 16/27/14
f 17/28/15 16/27/15 23/31/15 24/32/15
f 15/30/16 14/17/16 21/33/16 22/34/16
f 20/20/17 19/24/17 26/35/17 27/36/17
f 18/23/18 17/28/18 24/32/18 25/37/18
f 16/27/19 15/30/19 22/34/19 23/31/19
f 14/17/20 56/38/20 21/33/20
f 71/39/21 20/20/21 27/36/21
f 19/24/22 18/23/22 25/37/22 26/35/22
f 27/36/23 26/35/23 33/40/23 34/41/23
f 25/37/24 24/32/24 31/42/24 32/43/24
f 23/31/25 22/34/25 29/44/25 30/45/25
f 21/33/26 56/46/26 28/47/26
f 71/48/27 27/36/27 34/41/27
f 26/35/28 25/37/28 32/43/28 33/40/28
f 24/32/29 23/31/29 30/45/29 31/42/29
f 22/34/30 21/33/30 28/47/30 29/44/30
f 30/45/31 29/44/31 36/49/31 37/50/31
f 28/47/32 56/51/32 35/52/32
f 71/53/33 34/41/33 41/54/33
f 33/40/34 32/43/34 39/55/34 40/56/34
f 31/42/35 30/45/35 37/50/35 38/57/35
f 29/44/36 28/47/36 35/52/36 36/49/36
f 34/41/37 33/40/37 40/56/37 41/54/37
f 32/43/38 31/42/38 38/57/38 39/55/38
f 71/58/39 41/54/39 48/59/39
f 40/56/40 39/55/40 46/60/40 47/61/40
f 38/57/41 37/50/41 44/62/41 45/63/41
f 36/49/42 35/52/42 42/64/42 43/65/42
f 41/54/43 40/56/43 47/61/43 48/59/43
f 39/55/44 38/57/44 45/63/44 46/60/44
f 37/50/45 36/49/45 43/65/45 44/62/45
f 35/52/46 56/66/46 42/64/46
f 43/65/47 42/64/47 49/67/47 50/68/47
f 48/59/48 47/61/48 54/69/48 55/70/48
f 46/60/49 45/63/49 52/71/49 53/72/49
f 44/62/50 43/65/50 50/68/50 51/73/50
f 42/64/51 56/74/51 49/67/51
f 71/75/52 48/59/52 55/70/52
f 47/61/53 46/60/53 53/72/53 54/69/53
f 45/63/54 44/62/54 51/73/54 52/71/54
f 55/70/55 54/69/55 62/76/55 63/77/55
f 53/72/56 52/71/56 60/78/56 61/79/56
f 51/73/57 50/68/57 58/80/57 59/81/57
f 49/67/58 56/82/58 57/83/58
f 71/84/59 55/70/59 63/77/59
f 54/69/60 53/72/60 61/79/60 62/76/60
f 52/71/61 51/73/61 59/81/61 60/78/61
f 50/68/62 49/67/62 57/83/62 58/80/62
f 57/83/63 56/85/63 64/86/63
f 71/87/64 63/77/64 70/88/64
f 62/76/65 61/79/65 68/89/65 69/90/65
f 60/78/66 59/81/66 66/91/66 67/92/66
f 58/80/67 57/83/67 64/86/67 65/93/67
f 63/77/68 62/76/68 69/90/68 70/88/68
f 61/79/69 60/78/69 67/92/69 68/89/69
f 59/81/70 58/80/70 65/93/70 66/91/70
f 69/90/71 68/89/71 76/94/71 77/95/71
f 67/92/72 66/91/72 74/96/72 75/97/72
f 65/93/73 64/86/73 72/98/73 73/99/73
f 70/88/74 69/90/74 77/95/74 78/100/74
f 68/89/75 67/92/75 75/97/75 76/94/75
f 66/91/76 65/93/76 73/99/76 74/96/76
f 64/86/77 56/101/77 72/98/77
f 71/102/78 70/88/78 78/100/78
f 78/100/79 77/95/79 84/103/79 85/104/79
f 76/94/80 75/97/80 82/105/80 83/106/80
f 74/96/81 73/99/81 80/107/81 81/108/81
f 72/98/82 56/109/82 79/110/82
f 71/111/83 78/100/83 85/104/83
f 77/95/84 76/94/84 83/106/84 84/103/84
f 75/97/85 74/96/85 81/108/85 82/105/85
f 73/99/86 72/98/86 79/110/86 80/107/86
f 83/112/87 82/113/87 89/114/87 90/115/87
f 81/116/88 80/117/88 87/118/88 88/119/88
f 79/120/89 56/121/89 86/122/89
f 71/123/90 85/124/90 92/125/90
f 84/126/91 83/112/91 90/115/91 91/127/91
f 82/113/92 81/116/92 88/119/92 89/114/92
f 80/117/93 79/120/93 86/122/93 87/118/93
f 85/124/94 84/126/94 91/127/94 92/125/94
f 71/128/95 92/125/95 99/129/95
f 91/127/96 90/115/96 97/130/96 98/131/96
f 89/114/97 88/119/97 95/132/97 96/133/97
f 87/118/98 86/122/98 93/134/98 94/135/98
f 92/125/99 91/127/99 98/131/99 99/129/99
f 90/115/100 89/114/100 96/133/100 97/130/100
f 88/119/101 87/118/101 94/135/101 95/132/101
f 86/122/102 56/136/102 93/134/102
f 96/133/103 95/132/103 102/137/103 103/138/103
f 94/135/104 93/134/104 100/139/104 101/140/104
f 99/129/105 98/131/105 105/141/105 106/142/105
f 97/130/106 96/133/106 103/138/106 104/143/106
f 95/132/107 94/135/107 101/140/107 102/137/107
f 93/134/108 56/144/108 100/139/108
f 71/145/109 99/129/109 106/142/109
f 98/131/110 97/130/110 104/143/110 105/141/110
f 106/142/111 105/141/111 12/21/111 13/19/111
f 104/143/112 103/138/112 10/25/112 11/22/112
f 102/137/113 101/140/113 107/29/113 108/26/113
f 100/139/114 56/146/114 9/15/114
f 71/147/115 106/142/115 13/19/115
f 105/141/116 104/143/116 11/22/116 12/21/116
f 103/138/117 102/137/117 108/26/117 10/25/117
f 101/140/118 100/139/118 9/15/118 107/29/118
